<svg xmlns="http://www.w3.org/2000/svg" viewBox="0 0 23.182 21.526">
  <path id="Icon_ionic-ios-star" data-name="Icon ionic-ios-star" d="M24.552,10.826H16.94l-2.313-6.9a.838.838,0,0,0-1.573,0l-2.313,6.9H3.078a.83.83,0,0,0-.828.828.608.608,0,0,0,.016.14.8.8,0,0,0,.347.585l6.256,4.409-2.4,6.98a.83.83,0,0,0,.285.931.8.8,0,0,0,.466.2,1.014,1.014,0,0,0,.517-.186l6.106-4.352,6.106,4.352a.97.97,0,0,0,.517.186.743.743,0,0,0,.461-.2.82.82,0,0,0,.285-.931l-2.4-6.98,6.2-4.45.15-.129a.868.868,0,0,0,.269-.554A.876.876,0,0,0,24.552,10.826Z" transform="translate(-2.25 -3.375)" fill="#df5a4c"/>
</svg>
