<svg xmlns="http://www.w3.org/2000/svg" viewBox="0 0 23.182 21.526">
  <path id="Icon_ionic-ios-star-outline" data-name="Icon ionic-ios-star-outline" d="M24.552,10.826H16.94l-2.313-6.9a.838.838,0,0,0-1.573,0l-2.313,6.9H3.078a.83.83,0,0,0-.828.828.608.608,0,0,0,.016.14.8.8,0,0,0,.347.585l6.256,4.409-2.4,6.98a.83.83,0,0,0,.285.931.8.8,0,0,0,.466.2,1.014,1.014,0,0,0,.517-.186l6.106-4.352,6.106,4.352a.97.97,0,0,0,.517.186.743.743,0,0,0,.461-.2.82.82,0,0,0,.285-.931l-2.4-6.98,6.2-4.45.15-.129a.868.868,0,0,0,.269-.554A.876.876,0,0,0,24.552,10.826ZM17.97,15.613a1.453,1.453,0,0,0-.528,1.645L19,21.8a.208.208,0,0,1-.316.238l-4.005-2.856a1.446,1.446,0,0,0-.843-.269,1.419,1.419,0,0,0-.838.269L8.992,22.029a.207.207,0,0,1-.316-.238l1.558-4.538A1.458,1.458,0,0,0,9.7,15.6L5.51,12.643a.208.208,0,0,1,.119-.378h5.107a1.447,1.447,0,0,0,1.371-.988l1.532-4.564a.208.208,0,0,1,.393,0l1.532,4.564a1.447,1.447,0,0,0,1.371.988H21.97a.2.2,0,0,1,.119.373Z" transform="translate(-2.25 -3.375)" fill="#c4c4c4"/>
</svg>
